<svg fill="none" xmlns="http://www.w3.org/2000/svg" viewBox="0 0 39 38">
  <path d="M32.5 1a1 1 0 10-2 0v5.214H25a1 1 0 100 2h5.5v5.214a1 1 0 102 0V8.214H38a1 1 0 100-2h-5.5V1zM5.904 14.292a1 1 0 011-1h9.808a1 1 0 010 2H6.904a1 1 0 01-1-1zm1 3.688a1 1 0 100 2h9.808a1 1 0 100-2H6.904zm0 4.688a1 1 0 100 2h4.904a1 1 0 100-2H6.904z" fill="#fff"/>
  <path fill-rule="evenodd" clip-rule="evenodd" d="M4.942 7.604h13.731c2.644 0 4.942 2.071 4.942 4.813v18.299h2.334a.085.085 0 00.059-.024.078.078 0 00.024-.056V27.37c0-.202.042-.402.124-.588a1.52 1.52 0 01.354-.496 1.627 1.627 0 011.145-.429c.865.02 1.545.715 1.545 1.541v1.46a.083.083 0 00.058.076.086.086 0 00.094-.03c.12-.16.278-.29.462-.376a1.3 1.3 0 01.593-.123 1.237 1.237 0 011.208 1.22v3.934c0 .65-.529 1.2-1.208 1.22a1.297 1.297 0 01-.594-.123 1.235 1.235 0 01-.463-.376.083.083 0 00-.041-.03.087.087 0 00-.052 0 .084.084 0 00-.042.028.078.078 0 00-.016.047v1.49c0 .2-.043.4-.125.587a1.513 1.513 0 01-.353.495c-.15.141-.33.252-.526.326a1.65 1.65 0 01-.618.104c-.864-.02-1.545-.715-1.545-1.541v-3.238a.078.078 0 00-.024-.056.085.085 0 00-.06-.024h-2.512c-.59 2.071-2.556 3.514-4.763 3.514H17.19a1.511 1.511 0 01-.468.915 1.59 1.59 0 01-.526.326c-.197.074-.407.11-.618.105a1.574 1.574 0 01-1.532-1.346H4.942C2.3 35.982 0 33.912 0 31.17V12.417c0-2.742 2.299-4.813 4.942-4.813zM17.2 33.982h1.474c1.135 0 2.12-.614 2.61-1.514h-4a.086.086 0 00-.06.023.078.078 0 00-.024.057v1.434zm4.416-3.266h-4.333a.086.086 0 01-.059-.024.078.078 0 01-.024-.056v-3.238c0-.826-.681-1.522-1.545-1.541a1.647 1.647 0 00-.618.104 1.592 1.592 0 00-.527.326 1.51 1.51 0 00-.353.495 1.454 1.454 0 00-.124.588v1.489a.078.078 0 01-.016.047.083.083 0 01-.042.029.087.087 0 01-.052-.001.083.083 0 01-.042-.03c-.12-.16-.278-.29-.463-.376a1.295 1.295 0 00-.593-.123c-.68.02-1.209.57-1.209 1.22v3.932c0 .149.028.292.08.425H4.941C3.317 33.982 2 32.722 2 31.17V12.417c0-1.554 1.317-2.813 2.942-2.813h13.731c1.625 0 2.942 1.26 2.942 2.813v18.299z" fill="#fff"/>
</svg>
