<svg fill="none" xmlns="http://www.w3.org/2000/svg" viewBox="0 0 39 32">
  <path fill-rule="evenodd" clip-rule="evenodd" d="M32.5 1a1 1 0 10-2 0v5.717H25a1 1 0 100 2h5.5v5.716a1 1 0 102 0V8.717H38a1 1 0 100-2h-5.5V1zm-9.751 19.11c.23-.117.484-.174.74-.166.848.029 1.511.772 1.511 1.65v5.313c0 .878-.662 1.62-1.51 1.648a1.516 1.516 0 01-.743-.165 1.573 1.573 0 01-.578-.509.105.105 0 00-.052-.04.101.101 0 00-.117.038.11.11 0 00-.02.064v2.011c0 .273-.054.543-.156.794a2.051 2.051 0 01-.442.67c-.188.19-.412.34-.658.44-.246.1-.508.147-.772.14-1.08-.026-1.931-.965-1.931-2.082v-4.375a.109.109 0 00-.03-.076.102.102 0 00-.074-.031H7.083a.102.102 0 00-.073.031.11.11 0 00-.03.076v4.413c0 .273-.053.543-.156.795a2.05 2.05 0 01-.441.67 1.926 1.926 0 01-1.431.58c-1.08-.026-1.931-.968-1.931-2.083v-1.973a.11.11 0 00-.02-.066.104.104 0 00-.053-.041.101.101 0 00-.067.001.105.105 0 00-.052.043c-.15.216-.348.39-.578.507-.23.118-.484.175-.74.166C.663 28.526 0 27.783 0 26.905v-5.313c0-.877.661-1.62 1.51-1.648.257-.008.512.048.743.166.23.117.429.292.578.508a.104.104 0 00.117.041A.104.104 0 003 20.62a.11.11 0 00.02-.063v-2.012c0-.273.053-.543.155-.794a2.05 2.05 0 01.442-.67 1.929 1.929 0 011.43-.58c1.08.026 1.931.966 1.931 2.082v4.375a.11.11 0 00.03.076c.02.02.047.032.074.032h10.834a.103.103 0 00.073-.032.11.11 0 00.03-.076v-4.413c0-.273.054-.543.156-.794a2 2 0 011.102-1.11c.245-.1.508-.147.772-.14 1.08.026 1.931.966 1.931 2.082v1.973a.11.11 0 00.02.063.104.104 0 00.053.04.1.1 0 00.065-.002.104.104 0 00.052-.04c.15-.216.348-.39.578-.507z" fill="#FFF"/>
</svg>
