<svg fill="none" xmlns="http://www.w3.org/2000/svg" viewBox="0 0 25 15">
  <path d="M23.49 3.333a1.56 1.56 0 00-1.32.651.104.104 0 01-.189-.06V2.017c0-1.08-.85-1.99-1.931-2.015a1.98 1.98 0 00-2.03 1.978v4.27a.104.104 0 01-.103.105H7.083a.104.104 0 01-.104-.104V2.016c0-1.08-.85-1.99-1.931-2.015A1.98 1.98 0 003.02 1.979v1.947a.104.104 0 01-.19.06 1.56 1.56 0 00-1.32-.653C.66 3.36 0 4.08 0 4.928v5.141c0 .85.664 1.569 1.51 1.595a1.56 1.56 0 001.32-.65.104.104 0 01.118-.044.104.104 0 01.073.104v1.91c0 1.078.85 1.99 1.931 2.015A1.98 1.98 0 006.98 13.02V8.75a.104.104 0 01.104-.104h10.834a.104.104 0 01.104.104v4.233c0 1.081.85 1.99 1.931 2.016a1.98 1.98 0 002.027-1.979v-1.946a.104.104 0 01.073-.1.105.105 0 01.117.04 1.56 1.56 0 001.32.652c.85-.026 1.511-.745 1.511-1.595V4.93c0-.85-.663-1.568-1.51-1.596z" fill="#fff"/>
</svg>
