<svg fill="none" xmlns="http://www.w3.org/2000/svg" viewBox="0 0 32 31">
  <path d="M6.904 5.904a1 1 0 100 2h9.808a1 1 0 100-2H6.904zm-1 5.904a1 1 0 011-1h9.808a1 1 0 110 2H6.904a1 1 0 01-1-1zm1 3.903a1 1 0 000 2h4.904a1 1 0 100-2H6.904z" fill="#fff"/>
  <path fill-rule="evenodd" clip-rule="evenodd" d="M18.673 0H4.943A4.942 4.942 0 000 4.942v19.616A4.942 4.942 0 004.942 29.5h13.731a4.942 4.942 0 004.942-4.942V4.942A4.942 4.942 0 0018.673 0zm0 2H4.943A2.942 2.942 0 002 4.942v19.616A2.942 2.942 0 004.942 27.5h13.731a2.942 2.942 0 002.942-2.942V4.942A2.942 2.942 0 0018.673 2z" fill="#fff"/>
  <path d="M30.407 21.667a1.248 1.248 0 00-1.055.52.083.083 0 01-.152-.047v-1.527c0-.865-.68-1.592-1.545-1.613a1.585 1.585 0 00-1.623 1.583V24a.083.083 0 01-.083.083h-8.667A.084.084 0 0117.2 24v-3.387c0-.865-.681-1.592-1.545-1.613a1.584 1.584 0 00-1.622 1.583v1.558a.084.084 0 01-.058.08.083.083 0 01-.094-.033 1.247 1.247 0 00-1.056-.521c-.68.02-1.209.596-1.209 1.275v4.113c0 .68.531 1.255 1.209 1.276a1.248 1.248 0 001.055-.52.084.084 0 01.153.048v1.528c0 .863.68 1.592 1.545 1.613a1.583 1.583 0 001.622-1.584V26a.084.084 0 01.083-.084h8.667a.083.083 0 01.083.084v3.387c0 .864.68 1.592 1.545 1.612a1.583 1.583 0 001.622-1.583V27.86a.083.083 0 01.151-.048 1.248 1.248 0 001.057.522c.68-.021 1.208-.596 1.208-1.276v-4.114c0-.68-.53-1.254-1.208-1.276z" fill="#fff"/>
</svg>
